# AST/ASF file generated using VICON BodyLanguage
# -----------------------------------------------
:version 1.10
:name VICON
:units
  mass 1.0
  length 0.45
  angle deg
:documentation
   .ast/.asf automatically generated from VICON data using
   VICON BodyBuilder and BodyLanguage model FoxedUp or BRILLIANT.MOD
:root
   order TX TY TZ RX RY RZ
   axis XYZ
   position 0 0 0  
   orientation 0 0 0 
:bonedata
  begin
     id 1 
     name lhipjoint
     direction 0.722297 -0.617336 0.311742 
     length 2.6635 
     axis 0 0 0  XYZ
  end
  begin
     id 2 
     name lfemur
     direction 0.34202 -0.939693 0  
     length 7.39349  
     axis 0 0 20  XYZ
    dof rx ry rz
    limits (-160.0 20.0)
           (-70.0 70.0)
           (-60.0 70.0)
  end
  begin
     id 3 
     name ltibia
     direction 0.34202 -0.939693 0   
     length 7.36294   
     axis 0 0 20   XYZ
    dof rx
    limits (-10.0 170.0)
  end
  begin
     id 4 
     name lfoot
     direction 0.104879 -0.288152 0.951824   
     length 2.16981   
     axis -90 7.62852e-016 20   XYZ
    dof rx rz
    limits (-45.0 90.0)
           (-70.0 20.0)
  end
  begin
     id 5 
     name ltoes
     direction 1.53586e-011 -4.21895e-011 1   
     length 1.08218   
     axis -90 7.62852e-016 20   XYZ
    dof rx
    limits (-90.0 20.0)
  end
  begin
     id 6 
     name rhipjoint
     direction -0.75102 -0.589393 0.297631   
     length 2.78977  
     axis 0 0 0  XYZ 
  end
  begin
     id 7 
     name rfemur
     direction -0.34202 -0.939693 0   
     length 7.46076   
     axis 0 0 -20   XYZ
    dof rx ry rz
    limits (-160.0 20.0)
           (-70.0 70.0)
           (-70.0 60.0)
  end
  begin
     id 8 
     name rtibia
     direction -0.34202 -0.939693 0   
     length 7.31726   
     axis 0 0 -20   XYZ
    dof rx
    limits (-10.0 170.0)
 end
 begin
     id 9 
     name rfoot
     direction -0.107991 -0.296704 0.948844   
     length 2.09388  
     axis -90 -7.62852e-016 -20   XYZ
    dof rx rz
    limits (-45.0 90.0)
           (-20.0 70.0)
  end
  begin
     id 10 
     name rtoes
     direction -1.53559e-011 -4.21911e-011 1   
     length 1.04433   
     axis -90 -7.62852e-016 -20   XYZ
    dof rx
    limits (-90.0 20.0)
  end
  begin
     id 11 
     name lowerback
     direction 0.0165164 0.98272 0.184358   
     length 1.71896   
     axis 0 0 0   XYZ
    dof rx ry rz
    limits (-20.0 45.0)
           (-30.0 30.0)
           (-30.0 30.0)
  end
  begin
     id 12 
     name upperback
     direction -0.00887249 0.992297 0.123566   
     length 1.71504   
     axis 0 0 0   XYZ
    dof rx ry rz
    limits (-20.0 45.0)
           (-30.0 30.0)
           (-30.0 30.0)
  end
  begin
     id 13 
     name thorax
     direction -0.0157026 0.998908 0.0440032   
     length 1.77022   
     axis 0 0 0   XYZ
    dof rx ry rz
    limits (-20.0 45.0)
           (-30.0 30.0)
           (-30.0 30.0)
  end
  begin
     id 14 
     name lowerneck
     direction -0.0238856 0.998137 0.0561411   
     length 1.89341   
     axis 0 0 0   XYZ
    dof rx ry rz
    limits (-20.0 45.0)
           (-30.0 30.0)
           (-30.0 30.0)
  end
  begin
     id 15 
     name upperneck
     direction 0.0276574 0.952253 -0.304056   
     length 1.86999   
     axis 0 0 0   XYZ
    dof rx ry rz
    limits (-20.0 45.0)
           (-30.0 30.0)
           (-30.0 30.0)
  end
  begin
     id 16
     name head
     direction 0.00800083 0.994258 -0.106712  
     length 1.91492  
     axis 0 0 0   XYZ
    dof rx ry rz
    limits (-20.0 45.0)
           (-30.0 30.0)
           (-30.0 30.0)
  end
  begin
     id 17 
     name lclavicle
     direction 0.97203 0.225407 0.06595  
     length 3.34889  
     axis 0 0 0   XYZ
    dof ry rz
    limits (-20.0 10.0)
           (0.0 20.0)
  end
  begin
     id 18 
     name lhumerus
     direction 1 -4.48973e-011 2.20267e-027   
     length 4.85645   
     axis 180 -30 -90   XYZ
    dof rx ry rz
    limits (-60.0 90.0)
           (-90.0 90.0)
           (-90.0 90.0)
  end
  begin
     id 19
     name lradius
     direction 1 -4.4897e-011 4.60472e-027   
     length 2.79874   
     axis 180 -30 -90   XYZ
    dof rx
    limits (-10.0 170.0)
  end
  begin
     id 20
     name lwrist
     direction 1 -4.48952e-011 1.14928e-026   
     length 1.39937   
     axis -6.29373e-015 90 90   XYZ
    dof ry
    limits (-180.0 0.0)
 end
  begin
     id 21 
     name lhand
     direction 1 -4.48967e-011 2.29886e-026   
     length 0.573398   
     axis -1.46689e-014 90 90   XYZ
    dof rx rz
    limits (-90.0 90.0)
           (-45.0 45.0)
  end
  begin
     id 22 
     name lfingers
     direction 1 -4.48955e-011 4.59726e-026   
     length 0.462289   
     axis -2.93383e-014 90 90   XYZ
    dof rx
    limits (0.0 90.0)
  end
  begin
     id 23
     name lthumb
     direction 0.707107 -6.34866e-011 0.707107   
     length 0.663757   
     axis -90 45 5.69224e-014   XYZ
    dof rx rz
    limits (-45.0 45.0)
           (-45.0 45.0)
  end
  begin
     id 24 
     name rclavicle
     direction -0.981571 0.157346 0.108443   
     length 3.35257  
     axis 0 0 0   XYZ 
    dof ry rz
    limits (-10.0 20.0)
           (-20.0 0.0)
  end
  begin
     id 25 
     name rhumerus
     direction -1 -4.48967e-011 8.58308e-029  
     length 4.67018   
     axis 180 30 90   XYZ
    dof rx ry rz
    limits (-90.0 60.0)
           (-90.0 90.0)
           (-90.0 90.0)
  end
  begin
     id 26 
     name rradius
     direction -1 -4.48958e-011 4.52548e-027   
     length 2.65534   
     axis 180 30 90   XYZ
    dof rx
    limits (-10.0 170.0)
  end
  begin
     id 27 
     name rwrist
     direction -1 -4.48977e-011 1.14952e-026   
     length 1.32767   
     axis -6.29373e-015 -90 -90   XYZ
    dof ry
    limits (-180.0 0.0)
  end
  begin
     id 28
     name rhand
     direction -1 -4.48924e-011 2.29804e-026   
     length 0.594069   
     axis -1.46689e-014 -90 -90   XYZ
    dof rx rz
    limits (-90.0 90.0)
           (-45.0 45.0)
  end
  begin
     id 29
     name rfingers
     direction -1 -4.48998e-011 4.59888e-026   
     length 0.478954   
     axis -2.93383e-014 -90 -90   XYZ
    dof rx
    limits (0.0 90.0)
  end
  begin
     id 30
     name rthumb
     direction -0.707107 -6.34933e-011 0.707107   
     length 0.687685   
     axis -90 -45 -5.69224e-014   XYZ
    dof rx rz
    limits (-45.0 45.0)
           (-45.0 45.0)
  end
:hierarchy
  begin
    root lhipjoint rhipjoint lowerback
    lhipjoint lfemur
    lfemur ltibia
    ltibia lfoot
    lfoot ltoes
    rhipjoint rfemur
    rfemur rtibia
    rtibia rfoot
    rfoot rtoes
    lowerback upperback
    upperback thorax
    thorax lowerneck lclavicle rclavicle
    lowerneck upperneck
    upperneck head
    lclavicle lhumerus
    lhumerus lradius
    lradius lwrist
    lwrist lhand lthumb
    lhand lfingers
    rclavicle rhumerus
    rhumerus rradius
    rradius rwrist
    rwrist rhand rthumb
    rhand rfingers
  end

#!OML:ASF E:\pregnant2\Project 1\Capture day 1\Session 1\pregnant2.ASF
:FULLY-SPECIFIED
:DEGREES
2068
root -10.9968 8.25676 30.1164 -107.233 -69.1444 170.784
lowerback -0.14962 1.22584 4.39595
upperback -8.26852 1.3176 -3.79426
thorax -8.45656 0.0388029 -6.5912
lowerneck -22.2238 0.990664 0.351162
upperneck 35.1763 2.38895 -5.67993
head 16.499 -0.124882 -2.16896
rclavicle -4.17448e-014 -9.02482e-014
rhumerus 5.93819 16.3363 -85.0858
rradius 29.4909
rwrist 19.1694
rhand -21.9309 -22.3359
rfingers 7.12502
rthumb 184.476 -232.269
lclavicle -4.17448e-014 -9.02482e-014
lhumerus -0.646572 -10.8523 82.7197
lradius 33.7496
lwrist 12.6778
lhand -27.3834 49.6694
lfingers 7.12502
lthumb 179.21 -100.352
rfemur -118.402 -4.90149 53.6404
rtibia 143.36
rfoot -6.3102 7.28435
rtoes 16.8192
lfemur -107.714 8.17687 -25.3278
ltibia 142.007
lfoot -22.5399 -13.9682
ltoes -28.8105
2069
root -10.9981 8.25057 30.1393 -107.352 -69.1854 170.904
lowerback -0.198745 1.23041 4.42782
upperback -8.28117 1.32193 -3.79814
thorax -8.44073 0.0380542 -6.61269
lowerneck -22.1537 1.00694 0.376869
upperneck 35.2394 2.38307 -5.65022
head 16.5133 -0.121497 -2.16396
rclavicle 9.34288e-015 6.79844e-014
rhumerus 5.97918 16.2714 -84.9791
rradius 29.4114
rwrist 19.0482
rhand -21.8318 -22.1176
rfingers 7.12502
rthumb 184.571 -232.048
lclavicle 9.34288e-015 6.79844e-014
lhumerus -0.350299 -9.91592 82.6698
lradius 32.0818
lwrist 13.2114
lhand -27.0779 49.1369
lfingers 7.12502
lthumb 179.505 -100.884
rfemur -118.496 -5.01504 53.6558
rtibia 143.438
rfoot -6.37757 7.33671
rtoes 16.8523
lfemur -107.774 7.95725 -25.4427
ltibia 142.11
lfoot -22.4548 -13.6151
ltoes -28.7812
2070
root -10.9991 8.24417 30.163 -107.461 -69.2241 171.016
lowerback -0.251453 1.23499 4.45691
upperback -8.29298 1.32574 -3.80511
thorax -8.42194 0.037221 -6.63576
lowerneck -22.0922 1.02389 0.41389
upperneck 35.3032 2.37343 -5.61849
head 16.5299 -0.11775 -2.16088
rclavicle 2.66371e-014 2.98177e-014
rhumerus 6.01663 16.1956 -84.8724
rradius 29.3313
rwrist 18.9395
rhand -21.7551 -21.8738
rfingers 7.12502
rthumb 184.645 -231.803
lclavicle 2.66371e-014 2.98177e-014
lhumerus -0.0354607 -9.10881 82.6438
lradius 30.4685
lwrist 13.6015
lhand -26.8197 48.7505
lfingers 7.12502
lthumb 179.754 -101.27
rfemur -118.597 -5.13523 53.6629
rtibia 143.518
rfoot -6.45253 7.40517
rtoes 16.8555
lfemur -107.839 7.7206 -25.5586
ltibia 142.214
lfoot -22.3673 -13.2622
ltoes -28.7533
2071
root -10.9995 8.23752 30.1873 -107.556 -69.2623 171.114
lowerback -0.304976 1.2415 4.48504
upperback -8.3044 1.33155 -3.81886
thorax -8.40189 0.0372004 -6.66572
lowerneck -22.0365 1.03884 0.463057
upperneck 35.3623 2.35485 -5.5817
head 16.5451 -0.11491 -2.15928
rclavicle 2.90226e-014 1.19271e-015
rhumerus 6.05505 16.1098 -84.7645
rradius 29.245
rwrist 18.8455
rhand -21.6974 -21.6171
rfingers 7.12502
rthumb 184.701 -231.545
lclavicle 2.90226e-014 1.19271e-015
lhumerus 0.29057 -8.48239 82.6393
lradius 28.9252
lwrist 13.814
lhand -26.6056 48.4896
lfingers 7.12502
lthumb 179.961 -101.531
rfemur -118.704 -5.259 53.6667
rtibia 143.596
rfoot -6.53734 7.4823
rtoes 16.7912
lfemur -107.914 7.46686 -25.6743
ltibia 142.318
lfoot -22.2739 -12.9103
ltoes -28.7299
2072
root -10.9996 8.23054 30.2121 -107.642 -69.2973 171.203
lowerback -0.358712 1.2487 4.51217
upperback -8.31526 1.33753 -3.84122
thorax -8.38101 0.0369489 -6.70446
lowerneck -21.995 1.05476 0.523329
upperneck 35.4205 2.3303 -5.53379
head 16.5628 -0.11114 -2.1559
rclavicle 1.92821e-014 -4.41302e-014
rhumerus 6.09604 16.0565 -84.646
rradius 29.1625
rwrist 18.7305
rhand -21.6592 -21.3784
rfingers 7.12502
rthumb 184.738 -231.305
lclavicle 1.92821e-014 -4.41302e-014
lhumerus 0.613888 -8.08229 82.639
lradius 27.4788
lwrist 13.8359
lhand -26.4022 48.3443
lfingers 7.12502
lthumb 180.157 -101.676
rfemur -118.813 -5.38215 53.6675
rtibia 143.672
rfoot -6.63646 7.5599
rtoes 16.6366
lfemur -107.995 7.20271 -25.7894
ltibia 142.422
lfoot -22.1802 -12.5677
ltoes -28.7082
2073
root -10.9991 8.22329 30.2372 -107.725 -69.3291 171.288
lowerback -0.410976 1.25473 4.53565
upperback -8.32627 1.34137 -3.86795
thorax -8.36148 0.0355967 -6.74579
lowerneck -21.9614 1.07121 0.586818
upperneck 35.4747 2.30255 -5.47653
head 16.58 -0.106634 -2.1494
rclavicle -1.49089e-014 -2.3059e-014
rhumerus 6.14228 16.0478 -84.5138
rradius 29.0818
rwrist 18.5851
rhand -21.6308 -21.1357
rfingers 7.12502
rthumb 184.765 -231.062
lclavicle -1.49089e-014 -2.3059e-014
lhumerus 0.926293 -7.85205 82.6472
lradius 26.0878
lwrist 13.5024
lhand -26.1188 48.0347
lfingers 7.12502
lthumb 180.431 -101.986
rfemur -118.919 -5.49742 53.6673
rtibia 143.742
rfoot -6.74617 7.63247
rtoes 16.4062
lfemur -108.079 6.93547 -25.9042
ltibia 142.526
lfoot -22.0865 -12.238
ltoes -28.6834
2074
root -10.9982 8.21591 30.2626 -107.813 -69.3539 171.377
lowerback -0.457072 1.25868 4.55084
upperback -8.33918 1.34179 -3.89789
thorax -8.34824 0.0326162 -6.78594
lowerneck -21.9306 1.09158 0.659472
upperneck 35.5231 2.27631 -5.41619
head 16.595 -0.0995671 -2.14259
rclavicle -2.0276e-014 3.10104e-014
rhumerus 6.19014 16.1106 -84.363
rradius 29.0238
rwrist 18.3696
rhand -21.5929 -20.9652
rfingers 7.12502
rthumb 184.802 -230.891
lclavicle -2.0276e-014 3.10104e-014
lhumerus 1.20769 -7.80091 82.6573
lradius 24.7789
lwrist 12.7906
lhand -25.7601 47.5819
lfingers 7.12502
lthumb 180.777 -102.44
rfemur -119.023 -5.60113 53.6621
rtibia 143.812
rfoot -6.8638 7.69178
rtoes 16.1552
lfemur -108.162 6.66917 -26.0179
ltibia 142.629
lfoot -21.9969 -11.9209
ltoes -28.6561
2075
root -10.9967 8.2085 30.2883 -107.914 -69.3721 171.477
lowerback -0.496559 1.25638 4.5549
upperback -8.35416 1.33336 -3.92501
thorax -8.34266 0.0256973 -6.81639
lowerneck -21.8984 1.11878 0.738935
upperneck 35.5645 2.25803 -5.357
head 16.6066 -0.0883384 -2.13556
rclavicle 3.4191e-014 -2.94201e-014
rhumerus 6.23594 16.2614 -84.1939
rradius 28.9957
rwrist 18.0879
rhand -21.5514 -20.863
rfingers 7.12502
rthumb 184.842 -230.788
lclavicle 3.4191e-014 -2.94201e-014
lhumerus 1.44261 -7.87965 82.6692
lradius 23.5853
lwrist 11.6545
lhand -25.2969 47.0149
lfingers 7.12502
lthumb 181.225 -103.009
rfemur -119.124 -5.69078 53.6517
rtibia 143.888
rfoot -6.99521 7.73341
rtoes 15.9446
lfemur -108.244 6.41393 -26.131
ltibia 142.73
lfoot -21.9101 -11.6265
ltoes -28.6035
2076
root -10.9946 8.20115 30.3144 -108.031 -69.38 171.595
lowerback -0.527935 1.25287 4.54603
upperback -8.37102 1.3228 -3.95294
thorax -8.34432 0.0182335 -6.84054
lowerneck -21.8662 1.14877 0.825716
upperneck 35.5996 2.24123 -5.29778
head 16.6153 -0.0753003 -2.12923
rclavicle 5.78463e-014 1.63003e-014
rhumerus 6.28308 16.4341 -84.0235
rradius 28.9796
rwrist 17.7956
rhand -21.4991 -20.7661
rfingers 7.12502
rthumb 184.892 -230.69
lclavicle 5.78463e-014 1.63003e-014
lhumerus 1.62732 -8.03189 82.6903
lradius 22.5376
lwrist 10.0353
lhand -24.6851 46.4142
lfingers 7.12502
lthumb 181.816 -103.614
rfemur -119.226 -5.76259 53.6328
rtibia 143.969
rfoot -7.13574 7.75399
rtoes 15.7789
lfemur -108.326 6.16802 -26.2473
ltibia 142.83
lfoot -21.8251 -11.3471
ltoes -28.5386
2077
root -10.9919 8.1939 30.3412 -108.162 -69.378 171.73
lowerback -0.550993 1.25213 4.5268
upperback -8.38918 1.31537 -3.98696
thorax -8.35186 0.0125259 -6.86588
lowerneck -21.8363 1.17858 0.929883
upperneck 35.6278 2.2186 -5.24075
head 16.6208 -0.0622298 -2.1278
rclavicle 1.2921e-014 -1.70955e-014
rhumerus 6.32981 16.6078 -83.8539
rradius 28.9792
rwrist 17.4989
rhand -21.4379 -20.688
rfingers 7.12502
rthumb 184.952 -230.61
lclavicle 1.2921e-014 -1.70955e-014
lhumerus 1.76239 -8.25536 82.7121
lradius 21.6772
lwrist 8.01246
lhand -23.9164 45.8786
lfingers 7.12502
lthumb 182.558 -104.157
rfemur -119.331 -5.81444 53.607
rtibia 144.058
rfoot -7.29445 7.74652
rtoes 15.6466
lfemur -108.414 5.92928 -26.3691
ltibia 142.929
lfoot -21.74 -11.0805
ltoes -28.4571
2078
root -10.9886 8.1868 30.3686 -108.308 -69.3626 171.887
lowerback -0.56987 1.26375 4.4998
upperback -8.40654 1.32346 -4.03877
thorax -8.35844 0.0144281 -6.90716
lowerneck -21.8156 1.19921 1.05636
upperneck 35.6514 2.17234 -5.17814
head 16.6252 -0.0543911 -2.13235
rclavicle 1.78906e-015 -7.09661e-014
rhumerus 6.37516 16.7372 -83.6923
rradius 28.9905
rwrist 17.2278
rhand -21.3704 -20.6345
rfingers 7.12502
rthumb 185.017 -230.555
lclavicle 1.78906e-015 -7.09661e-014
lhumerus 1.86765 -8.53441 82.7191
lradius 21.0066
lwrist 5.67241
lhand -22.9334 45.4405
lfingers 7.12502
lthumb 183.507 -104.609
rfemur -119.44 -5.84345 53.5688
rtibia 144.151
rfoot -7.47005 7.72036
rtoes 15.5514
lfemur -108.51 5.69804 -26.5036
ltibia 143.024
lfoot -21.6579 -10.8172
ltoes -28.377
2079
root -10.9845 8.17991 30.3966 -108.464 -69.3335 172.062
lowerback -0.584583 1.28625 4.46374
upperback -8.42415 1.34527 -4.1038
thorax -8.36554 0.0232404 -6.95862
lowerneck -21.8033 1.21286 1.19985
upperneck 35.6689 2.1098 -5.11532
head 16.6278 -0.0503555 -2.14279
rclavicle -2.34566e-014 -5.10877e-014
rhumerus 6.42213 16.8138 -83.541
rradius 29.004
rwrist 16.9962
rhand -21.2906 -20.5901
rfingers 7.12502
rthumb 185.094 -230.509
lclavicle -2.34566e-014 -5.10877e-014
lhumerus 1.96915 -8.79953 82.7136
lradius 20.4818
lwrist 3.14064
lhand -21.7176 45.0456
lfingers 7.12502
lthumb 184.681 -105.026
rfemur -119.555 -5.84785 53.5165
rtibia 144.244
rfoot -7.65877 7.67993
rtoes 15.4665
lfemur -108.619 5.4706 -26.6505
ltibia 143.116
lfoot -21.5743 -10.5556
ltoes -28.2936
2080
root -10.9798 8.17335 30.4249 -108.625 -69.2887 172.254
lowerback -0.597181 1.31629 4.41899
upperback -8.44126 1.37629 -4.18008
thorax -8.37181 0.0368302 -7.01795
lowerneck -21.8029 1.22408 1.34999
upperneck 35.6815 2.04037 -5.04787
head 16.6304 -0.0471969 -2.15355
rclavicle -3.97569e-015 6.93758e-014
rhumerus 6.47257 16.8595 -83.3994
rradius 29.0195
rwrist 16.7841
rhand -21.2109 -20.5536
rfingers 7.12502
rthumb 185.171 -230.471
lclavicle -3.97569e-015 6.93758e-014
lhumerus 2.08684 -9.08473 82.6656
lradius 20.0731
lwrist 0.679696
lhand -20.3017 44.645
lfingers 7.12502
lthumb 186.049 -105.461
rfemur -119.677 -5.83372 53.4484
rtibia 144.334
rfoot -7.8556 7.64039
rtoes 15.3758
lfemur -108.736 5.24454 -26.8107
ltibia 143.202
lfoot -21.4959 -10.2856
ltoes -28.213
2081
root -10.9746 8.1673 30.4535 -108.785 -69.2314 172.453
lowerback -0.609789 1.34882 4.36135
upperback -8.45916 1.4102 -4.25488
thorax -8.37857 0.0528247 -7.06847
lowerneck -21.8079 1.23492 1.48382
upperneck 35.6881 1.97691 -4.97858
head 16.6314 -0.0434556 -2.15918
rclavicle -3.926e-014 -6.65929e-014
rhumerus 6.52736 16.913 -83.2486
rradius 29.0396
rwrist 16.5612
rhand -21.1434 -20.5347
rfingers 7.12502
rthumb 185.236 -230.45
lclavicle -3.926e-014 -6.65929e-014
lhumerus 2.2313 -9.42549 82.5747
lradius 19.7435
lwrist -1.45072
lhand -18.8192 44.2122
lfingers 7.12502
lthumb 187.48 -105.94
rfemur -119.807 -5.80249 53.3655
rtibia 144.416
rfoot -8.06653 7.60528
rtoes 15.281
lfemur -108.861 5.01655 -26.9799
ltibia 143.283
lfoot -21.4207 -10.0119
ltoes -28.1292
2082
root -10.9688 8.16191 30.482 -108.953 -69.1638 172.67
lowerback -0.621521 1.3823 4.29631
upperback -8.47883 1.44548 -4.32363
thorax -8.3877 0.0701832 -7.10832
lowerneck -21.809 1.24993 1.60254
upperneck 35.6868 1.92969 -4.91889
head 16.6284 -0.0365458 -2.1628
rclavicle -1.50082e-014 3.26007e-014
rhumerus 6.58469 17.0032 -83.083
rradius 29.0709
rwrist 16.3053
rhand -21.0846 -20.5283
rfingers 7.12502
rthumb 185.293 -230.442
lclavicle -1.50082e-014 3.26007e-014
lhumerus 2.40153 -9.91565 82.4302
lradius 19.4801
lwrist -2.96309
lhand -17.4591 43.7664
lfingers 7.12502
lthumb 188.792 -106.437
rfemur -119.941 -5.74972 53.2689
rtibia 144.489
rfoot -8.28809 7.577
rtoes 15.1459
lfemur -108.99 4.79697 -27.1542
ltibia 143.359
lfoot -21.3567 -9.73589
ltoes -28.0354
